Coordinates
version=1
nRows=16
nColumns=40
inDegrees=yes

Units are S.I. units (second, meters, Newtons, ...)
Angles are in degrees.

endheader
time	pelvis_tilt	pelvis_list	pelvis_rotation	pelvis_tx	pelvis_ty	pelvis_tz	hip_flexion_r	hip_adduction_r	hip_rotation_r	knee_angle_r	knee_angle_r_beta	ankle_angle_r	subtalar_angle_r	mtp_angle_r	hip_flexion_l	hip_adduction_l	hip_rotation_l	knee_angle_l	knee_angle_l_beta	ankle_angle_l	subtalar_angle_l	mtp_angle_l	lumbar_extension	lumbar_bending	lumbar_rotation	arm_flex_r	arm_add_r	arm_rot_r	elbow_flex_r	pro_sup_r	wrist_flex_r	wrist_dev_r	arm_flex_l	arm_add_l	arm_rot_l	elbow_flex_l	pro_sup_l	wrist_flex_l	wrist_dev_l
      0.00000000	     -3.91142993	     -5.00086076	      1.97958783	     -0.76670699	      0.94769898	      1.03879299	     19.68852751	      2.54808979	    -17.65723612	    -24.76545953	     -0.43223881	      2.24320582	    -10.00903058	     -1.00085362	     11.95121894	     13.85918205	      8.62445819	    -58.99753445	     -1.02970123	     -2.93573059	     13.80114764	     -1.09983694	      1.17822144	      2.48598680	     -5.73724719	     -0.87637882	     -9.95312550	    -23.83529938	     15.88071504	     89.95437384	      0.00000000	      0.00000000	      2.65962889	     10.57096872	      7.52997851	     17.36361255	     89.95437384	      0.00000000	      0.00000000
      0.01000000	     -3.65789364	     -4.90334338	      2.33790761	     -0.75857278	      0.94938061	      1.04061668	     18.53645408	      2.66201007	    -17.80474176	    -24.24203123	     -0.42310326	      2.84884149	     -9.96448212	     -1.01624453	     13.42733704	     13.72732556	      8.42473912	    -60.19073799	     -1.05052656	     -1.60357695	     15.50437625	     -1.04772106	      0.74637468	      2.27573994	     -5.49911209	     -0.17305802	     -9.98898400	    -23.56667733	     16.04289544	     89.95437384	      0.00000000	      0.00000000	      2.29242198	     10.72737629	      7.38772324	     15.58820709	     89.95437384	      0.00000000	      0.00000000
      0.02000000	     -3.56714417	     -4.62899498	      2.52844759	     -0.75039939	      0.95085946	      1.04228552	     17.56251850	      2.57203592	    -17.93024932	    -23.70184710	     -0.41367527	      3.27004907	     -9.81524232	     -1.00376073	     14.92834732	     13.33855828	      8.38384873	    -61.03663123	     -1.06529018	     -0.35498961	     16.71917979	     -0.89439943	      0.47865743	      1.89568673	     -5.12193069	      0.39281454	    -10.04338329	    -23.23412670	     16.47628402	     89.95437384	      0.00000000	      0.00000000	      1.76321364	     10.87976838	      7.46697864	     14.24282019	     89.95437384	      0.00000000	      0.00000000
      0.03000000	     -3.47247001	     -4.26716158	      2.53489609	     -0.74225815	      0.95233770	      1.04441250	     16.66232252	      2.39462160	    -18.20226330	    -23.31601418	     -0.40694122	      3.59340543	     -9.76891400	     -1.00767118	     16.28721859	     13.02458685	      8.71624074	    -61.52114999	     -1.07374663	      0.15029354	     16.99841735	     -0.84756200	      0.20578874	      1.39681031	     -4.59427643	      1.03287065	    -10.06040324	    -22.99598706	     16.85296372	     89.95437384	      0.00000000	      0.00000000	      0.90748571	     11.13507664	      7.44022456	     13.47363118	     89.95437384	      0.00000000	      0.00000000
      0.04000000	     -3.40256700	     -3.92885936	      2.68311427	     -0.73431898	      0.95388591	      1.04582915	     15.65404288	      2.26427849	    -18.09074252	    -22.62017384	     -0.39479651	      3.95461646	     -9.45078353	     -1.01681279	     17.60287499	     12.32261785	      8.42907104	    -61.65135304	     -1.07601910	      1.41991113	     17.63165048	     -0.56592173	     -0.02496950	      0.95561297	     -4.17078215	      1.60686148	    -10.20228289	    -22.32837147	     17.30468492	     89.95437384	      0.00000000	      0.00000000	      0.38782766	     11.30428685	      7.38417367	     12.19112388	     89.95437384	      0.00000000	      0.00000000
      0.05000000	     -3.11779426	     -3.18224346	      2.63809457	     -0.72621089	      0.95576541	      1.04693736	     14.54011548	      1.48726644	    -18.63269094	    -22.29843164	     -0.38918105	      4.48934042	     -8.25389270	     -1.58745417	     18.48014398	     11.22369812	      8.64717100	    -61.54109361	     -1.07409471	      4.84921420	     17.35773488	     12.73994085	     -0.51222352	      0.11478372	     -3.75843496	      2.14464060	    -10.47377425	    -20.42163454	     18.01283580	     89.95437384	      0.00000000	      0.00000000	     -0.43744478	     11.47405385	      8.03230080	     11.47646651	     89.95437384	      0.00000000	      0.00000000
      0.06000000	     -3.16281576	     -2.91707579	      2.53130374	     -0.71830529	      0.95696322	      1.04880415	     13.84437165	      1.38475582	    -18.85938156	    -21.92234468	     -0.38261709	      4.72375753	     -8.22279894	     -1.60108687	     19.75582975	     10.92140076	      9.04694375	    -61.11634035	     -1.06668137	      5.10983342	     17.28423053	     12.57987244	     -0.60189155	     -0.26978035	     -3.15808386	      2.83261903	    -10.60159042	    -20.22892223	     18.37200428	     89.95437384	      0.00000000	      0.00000000	     -1.30331340	     11.71080303	      7.95573490	     10.94445769	     89.95437384	      0.00000000	      0.00000000
      0.07000000	     -2.67100104	     -2.10941505	      2.13436398	     -0.70981188	      0.95925252	      1.05046238	     12.35375974	      0.82881190	    -18.32022752	    -21.19207510	     -0.36987149	      4.96100988	     -7.72394197	     -1.74051881	     19.90140415	      9.88778765	      9.64838191	    -59.87534992	     -1.04502200	      5.57455650	     17.20503782	     12.42577732	     -1.23244935	     -1.19598216	     -2.24628156	      3.45050826	    -10.81830152	    -19.13381137	     18.81042551	     89.95437384	      0.00000000	      0.00000000	     -2.12536691	     11.98423464	      7.59242300	     10.41773146	     89.95437384	      0.00000000	      0.00000000
      0.08000000	     -2.65866580	     -1.62036922	      1.88284772	     -0.70172088	      0.96052308	      1.05214447	     11.48867126	      0.52877345	    -18.15885677	    -20.57586102	     -0.35911652	      5.17326287	     -7.35700445	     -1.83407578	     20.79566222	      9.24494550	     10.10415303	    -58.67291415	     -1.02403553	      5.76392856	     16.92901892	     12.24988876	     -1.31710093	     -1.80771061	     -1.53442767	      4.06249358	    -11.03480954	    -18.44697101	     19.23321909	     89.95437384	      0.00000000	      0.00000000	     -3.09048646	     12.23809674	      7.51142987	     10.15938786	     89.95437384	      0.00000000	      0.00000000
      0.09000000	     -2.79713698	     -1.47957496	      1.71090247	     -0.69361098	      0.96125894	      1.05376816	     10.91417738	      0.51449938	    -18.39768180	    -20.28986236	     -0.35412490	      5.42037412	     -7.29432859	     -1.87526314	     21.88802549	      9.05354992	     10.52802808	    -57.34390190	     -1.00083989	      5.93102730	     16.66974031	     12.11059602	     -1.19492912	     -2.03769272	     -0.85544411	      4.65501583	    -11.24342970	    -18.22852354	     19.62920397	     89.95437384	      0.00000000	      0.00000000	     -4.02553440	     12.41798145	      7.50866445	      9.91987346	     89.95437384	      0.00000000	      0.00000000
      0.10000000	     -2.75176108	     -0.70176423	      1.11003600	     -0.68524465	      0.96247462	      1.05550537	      9.91645051	     -0.03241801	    -17.69514146	    -19.42810548	     -0.33908441	      5.62251109	     -6.71040783	     -1.99210750	     22.32232683	      8.12754586	     11.34780317	    -55.37327682	     -0.96644600	      6.02547163	     16.25958642	     11.95038431	     -1.25194281	     -2.95131036	      0.21629267	      5.21138764	    -11.48504377	    -17.46015880	     20.03786496	     89.95437384	      0.00000000	      0.00000000	     -5.03678374	     12.68176964	      7.55579814	      9.86717630	     89.95437384	      0.00000000	      0.00000000
      0.11000000	     -1.89027630	      0.00402613	      0.65700508	     -0.67603314	      0.96482406	      1.05688393	      8.04037486	     -0.68661249	    -17.73016039	    -18.87579148	     -0.32944471	      6.08306951	     -5.76052641	     -2.66772745	     21.60860907	      7.41597900	     12.50719692	    -52.85208114	     -0.92244283	      6.04185964	     16.11492640	     11.74067116	     -2.17198354	     -3.73883296	      1.03797155	      5.79429736	    -11.79339358	    -16.43491586	     20.67951609	     89.95437384	      0.00000000	      0.00000000	     -5.97703751	     12.88007531	      7.93324758	      9.76159339	     89.95437384	      0.00000000	      0.00000000
      0.12000000	     -1.86322141	      0.49931500	      0.16384108	     -0.66745382	      0.96555878	      1.05839322	      7.20224942	     -1.08080152	    -17.52006834	    -18.38890951	     -0.32094702	      6.43976525	     -5.21283175	     -3.23917262	     21.97776577	      6.87577819	     13.41498767	    -50.44294486	     -0.88039547	      6.00899265	     15.95879963	     11.57803384	     -2.13868589	     -4.33901778	      1.95771722	      6.37352676	    -12.00752687	    -16.17008748	     21.04825904	     89.95437384	      0.00000000	      0.00000000	     -6.94494786	     13.05523557	      8.47221073	      9.67659312	     89.95437384	      0.00000000	      0.00000000
      0.13000000	     -1.86981533	      0.88097817	     -0.30625437	     -0.65902521	      0.96606398	      1.05981432	      6.40500725	     -1.36202509	    -17.31292977	    -17.86888356	     -0.31187085	      6.71973197	     -4.72185404	     -3.67057033	     22.34497638	      6.49469008	     14.37538646	    -47.86101197	     -0.83533224	      5.87105708	     15.79498651	     11.49057796	     -2.07271892	     -4.78751905	      2.82207612	      6.96093365	    -12.27388775	    -15.84551299	     21.47543867	     89.95437384	      0.00000000	      0.00000000	     -7.94381902	     13.22002193	      8.90743995	      9.68519906	     89.95437384	      0.00000000	      0.00000000
      0.14000000	     -2.02305974	      1.18594780	     -0.70681266	     -0.65065791	      0.96611078	      1.06103979	      5.75625687	     -1.58183228	    -17.22995550	    -17.30926590	     -0.30210368	      6.93002765	     -4.23954784	     -3.97614147	     22.85328639	      6.15570276	     15.20563377	    -45.14576466	     -0.78794224	      5.59759860	     15.66183664	     11.51331227	     -1.83002603	     -5.13732516	      3.61759659	      7.46365302	    -12.57110180	    -15.43390808	     21.97951356	     89.95437384	      0.00000000	      0.00000000	     -8.92249892	     13.36105833	      9.43081132	      9.64780253	     89.95437384	      0.00000000	      0.00000000
      0.15000000	     -1.92250433	      1.53214650	     -1.13401710	     -0.64193071	      0.96638198	      1.06193689	      4.85540689	     -1.93039488	    -17.30645099	    -16.86552342	     -0.29435891	      7.24599814	     -3.55384780	     -4.61781021	     22.89104186	      5.71968501	     16.04030143	    -42.13552375	     -0.73540362	      5.21377455	     15.53868441	     11.57322428	     -1.85612251	     -5.50176912	      4.37170612	      8.01915803	    -12.88088239	    -15.13715549	     22.47391758	     89.95437384	      0.00000000	      0.00000000	     -9.85662856	     13.43453945	     10.22582380	      9.61123865	     89.95437384	      0.00000000	      0.00000000
